<svg width="18" height="16" viewBox="0 0 18 16" fill="none" xmlns="http://www.w3.org/2000/svg">
<path d="M17.3279 8.07611C17.3279 6.96033 16.4247 6.37588 15.2026 6.37588H11.6427C11.9084 5.4195 12.0147 4.51625 12.0147 3.71926C12.0147 0.637588 11.1645 0 10.4207 0C9.94248 0 9.57055 0.0531325 9.09236 0.318794C8.93296 0.425059 8.87983 0.531323 8.8267 0.69072L8.29537 3.55987C7.71092 5.04757 6.27634 6.37588 5.10742 7.27913V14.877C5.53248 14.877 5.95754 15.0896 6.48887 15.3552C7.07333 15.6209 7.65778 15.9397 8.29537 15.9397H13.343C14.4056 15.9397 15.2026 15.0896 15.2026 14.3457C15.2026 14.1863 15.2026 14.0801 15.1495 13.9738C15.7871 13.7081 16.2653 13.1768 16.2653 12.4861C16.2653 12.1673 16.2121 11.9016 16.1059 11.636C16.5309 11.3703 16.9028 10.8921 16.9028 10.3608C16.9028 10.042 16.7434 9.72321 16.584 9.45755C17.0091 9.13876 17.3279 8.60744 17.3279 8.07611ZM16.2121 8.07611C16.2121 8.76683 15.5214 8.81997 15.4151 9.13876C15.3089 9.51069 15.8402 9.61695 15.8402 10.2545C15.8402 10.8921 15.0432 10.8921 14.9369 11.2641C14.8307 11.6891 15.2026 11.7954 15.2026 12.433V12.5392C15.0963 13.0706 14.2993 13.1237 14.14 13.3362C13.9806 13.6019 14.14 13.7081 14.14 14.2926C14.14 14.6114 13.768 14.8239 13.343 14.8239H8.29537C7.87031 14.8239 7.44525 14.6114 6.91393 14.3457C6.48887 14.1332 6.06381 13.9207 5.63875 13.8144V8.23551C6.96706 7.226 8.6673 5.73829 9.30489 3.87866V3.77239L9.78308 1.11578C9.99561 1.06265 10.155 1.06265 10.4207 1.06265C10.5269 1.06265 10.952 1.70023 10.952 3.71926C10.952 4.51625 10.7926 5.36636 10.5269 6.37588H10.4207C10.1019 6.37588 9.88935 6.58841 9.88935 6.9072C9.88935 7.226 10.1019 7.43852 10.4207 7.43852H15.2026C15.7339 7.43852 16.2121 7.70419 16.2121 8.07611Z" fill="#4E5353"/>
<path d="M4.5758 15.9398H1.38785C0.803388 15.9398 0.325195 15.4616 0.325195 14.8771V7.43862C0.325195 6.85417 0.803388 6.37598 1.38785 6.37598H4.5758C5.16026 6.37598 5.63845 6.85417 5.63845 7.43862V14.8771C5.63845 15.4616 5.16026 15.9398 4.5758 15.9398ZM1.38785 7.43862V14.8771H4.5758V7.43862H1.38785Z" fill="#4E5353"/>
</svg>
