<svg width="18" height="16" viewBox="0 0 18 16" fill="none" xmlns="http://www.w3.org/2000/svg">
<path d="M0.217017 7.86334C0.217017 8.97912 1.12027 9.56357 2.34232 9.56357H5.9022C5.63654 10.52 5.53027 11.4232 5.53027 12.2202C5.53027 15.3019 6.38039 15.9395 7.12425 15.9395C7.60244 15.9395 7.97437 15.8863 8.45256 15.6207C8.61196 15.5144 8.66509 15.4081 8.71822 15.2487L9.24955 12.3796C9.83401 10.8919 11.2686 9.56357 12.4375 8.66033V1.0624C12.0124 1.0624 11.5874 0.849874 11.0561 0.584212C10.4716 0.31855 9.88714 -0.000242233 9.24955 -0.000242233L4.20196 -0.000242233C3.13931 -0.000242233 2.34232 0.849874 2.34232 1.59373C2.34232 1.75312 2.34232 1.85939 2.39545 1.96565C1.75786 2.23131 1.27967 2.76264 1.27967 3.45336C1.27967 3.77215 1.3328 4.03781 1.43906 4.30348C1.014 4.56914 0.642077 5.04733 0.642077 5.57865C0.642077 5.89744 0.801476 6.21624 0.960874 6.4819C0.535813 6.80069 0.217017 7.33202 0.217017 7.86334ZM1.3328 7.86334C1.3328 7.17262 2.02352 7.11949 2.12979 6.80069C2.23605 6.42877 1.70473 6.3225 1.70473 5.68492C1.70473 5.04733 2.50172 5.04733 2.60798 4.6754C2.71425 4.25034 2.34232 4.14408 2.34232 3.50649V3.40023C2.44858 2.8689 3.24557 2.81577 3.40497 2.60324C3.56437 2.33758 3.40497 2.23131 3.40497 1.64686C3.40497 1.32806 3.7769 1.11553 4.20196 1.11553L9.24955 1.11553C9.67461 1.11553 10.0997 1.32806 10.631 1.59373C11.0561 1.80626 11.4811 2.01879 11.9062 2.12505V7.70394C10.5779 8.71346 8.87762 10.2012 8.24003 12.0608V12.1671L7.76184 14.8237C7.54931 14.8768 7.38991 14.8768 7.12425 14.8768C7.01798 14.8768 6.59292 14.2392 6.59292 12.2202C6.59292 11.4232 6.75232 10.5731 7.01798 9.56357H7.12425C7.44304 9.56357 7.65557 9.35105 7.65557 9.03225C7.65557 8.71346 7.44304 8.50093 7.12425 8.50093H2.34232C1.81099 8.50093 1.3328 8.23527 1.3328 7.86334Z" fill="#4E5353"/>
<path d="M12.9691 -0.000341415H16.1571C16.7415 -0.000341415 17.2197 0.47785 17.2197 1.06231V8.50083C17.2197 9.08529 16.7415 9.56348 16.1571 9.56348H12.9691C12.3847 9.56348 11.9065 9.08529 11.9065 8.50083V1.06231C11.9065 0.47785 12.3847 -0.000341415 12.9691 -0.000341415ZM16.1571 8.50083V1.06231H12.9691V8.50083H16.1571Z" fill="#4E5353"/>
</svg>
