<svg width="22" height="19" stroke="#0D141C" viewBox="0 0 22 19" fill="none" xmlns="http://www.w3.org/2000/svg">
<path d="M21 17.9999C21 16.0261 19.1449 14.3469 16.5556 13.7245M14.3333 18C14.3333 15.4963 11.3486 13.4667 7.66667 13.4667C3.98477 13.4667 1 15.4963 1 18M14.3333 10.0667C16.7879 10.0667 18.7778 8.03702 18.7778 5.53333C18.7778 3.02964 16.7879 1 14.3333 1M7.66667 10.0667C5.21207 10.0667 3.22222 8.03702 3.22222 5.53333C3.22222 3.02964 5.21207 1 7.66667 1C10.1213 1 12.1111 3.02964 12.1111 5.53333C12.1111 8.03702 10.1213 10.0667 7.66667 10.0667Z" stroke="current" stroke-width="2" stroke-linecap="round" stroke-linejoin="round"/>
</svg>
