<svg width="20" height="19" viewBox="0 0 20 19" stroke="black" fill="none" xmlns="http://www.w3.org/2000/svg">
<path d="M19 14.879V9.10798C19 8.55215 18.9995 8.27409 18.9264 8.01545C18.8616 7.78624 18.7553 7.56934 18.6114 7.37333C18.449 7.15215 18.2232 6.96874 17.7709 6.60272L12.3708 2.23381C11.5309 1.55425 11.1109 1.21465 10.6383 1.08541C10.2218 0.97153 9.77794 0.97153 9.36147 1.08541C8.88919 1.21455 8.46983 1.55384 7.63116 2.23237L2.22937 6.60272C1.77697 6.96874 1.5513 7.15215 1.38892 7.37333C1.24502 7.56934 1.13787 7.78624 1.07309 8.01545C1 8.27409 1 8.55215 1 9.10798V14.879C1 15.8484 1 16.3329 1.17127 16.7152C1.39963 17.225 1.83736 17.6305 2.38867 17.8416C2.80216 18 3.32634 18 4.37471 18C5.42308 18 5.94784 18 6.36133 17.8416C6.91264 17.6305 7.35025 17.2251 7.57861 16.7153C7.74988 16.333 7.75 15.8483 7.75 14.8789V13.8387C7.75 12.6897 8.75736 11.7583 10 11.7583C11.2426 11.7583 12.25 12.6897 12.25 13.8387V14.8789C12.25 15.8483 12.25 16.333 12.4213 16.7153C12.6496 17.2251 13.0874 17.6305 13.6387 17.8416C14.0522 18 14.5763 18 15.6247 18C16.6731 18 17.1978 18 17.6113 17.8416C18.1626 17.6305 18.6003 17.225 18.8286 16.7152C18.9999 16.3329 19 15.8484 19 14.879Z" stroke="current" stroke-width="2" stroke-linecap="round" stroke-linejoin="round"/>
</svg>
