<svg width="222" height="252" viewBox="0 0 222 252" fill="none" xmlns="http://www.w3.org/2000/svg">
<path d="M34 85V160C34 202.526 68.4741 237 111 237V237C153.526 237 188 202.526 188 160V85" stroke="black" stroke-width="30"/>
<rect x="79" y="154" width="26" height="26" fill="#040405"/>
<rect x="116" y="154" width="26" height="26" fill="#040405"/>
<rect x="79" y="117" width="26" height="26" fill="#040405"/>
<rect x="116" y="117" width="26" height="26" fill="#040405"/>
<path d="M111.23 0L213.843 89.2002L206.865 97.2271C199.981 105.147 187.98 105.986 180.061 99.1015L91.7872 22.3664L111.23 0Z" fill="black"/>
<path d="M111.094 0L7.70806 89.8723L14.6858 97.8993C21.5701 105.819 33.5709 106.658 41.4904 99.7737L130.537 22.3664L111.094 0Z" fill="black"/>
<path d="M19.7866 99.4755C14.368 104.186 6.15694 103.612 1.44663 98.193L-9.17228e-05 96.5287L9.81113 88L19.7866 99.4755Z" fill="black"/>
<path d="M202.191 99.2554C207.61 103.966 215.821 103.392 220.531 97.9729L221.981 96.305L212.17 87.7762L202.191 99.2554Z" fill="black"/>
</svg>
